<svg width="230" height="70" xmlns="http://www.w3.org/2000/svg">
 <g>
  <g id="formula_one_font">
   <path id="svg_45" d="m19.701973,23.35246c-2.119,3.116 -4.151,4.813 -6.237,5.114c-1.446,0.221 -2.649,-0.339 -3.6,-1.684c0.185,-2.979 0.351,-5.958 0.57,-8.947c2.786,-3.094 4.664,-5.58 5.587,-7.531c0.942,-1.955 1.29,-3.887 1.041,-5.826c-0.132,-1.125 -0.438,-1.995 -0.911,-2.632c-0.453,-0.641 -1.008,-0.915 -1.627,-0.832c-0.085,0.005 -0.666,0.203 -1.755,0.606c-1.107,0.385 -2.109,0.788 -3.085,1.203c-0.934,0.412 -1.504,0.788 -1.729,1.128c-0.221,0.336 -0.661,1.579 -1.3,3.738c-0.655,2.163 -1.106,4.112 -1.368,5.848c-0.266,1.733 -0.49,4.512 -0.658,8.308c-1.242,1.621 -2.451,3.271 -3.63,4.913c0.112,0.616 0.228,1.232 0.339,1.857c0.166,-0.038 0.354,-0.074 0.525,-0.104c0.404,-0.6 0.828,-1.197 1.239,-1.793c0.606,0.955 1.017,1.536 1.228,1.759c-0.135,6.229 -0.061,11.266 0.166,15.12c1.987,-0.782 3.711,-1.377 5.171,-1.808c-0.134,-3.596 -0.115,-6.935 0.027,-10.069c1.04,0.241 1.835,0.324 2.396,0.24c1.17,-0.174 2.432,-0.806 3.831,-1.887c1.359,-1.083 2.717,-2.525 4.07,-4.334c-0.078,-0.799 -0.178,-1.597 -0.29,-2.387l0,0zm-7.733,-17.408c0.5,-1.69 1.125,-2.585 1.854,-2.671c0.372,-0.057 0.685,0.088 0.982,0.429c0.298,0.34 0.506,0.807 0.582,1.379c0.163,1.373 -0.168,2.933 -0.997,4.698c-0.829,1.769 -2.066,3.474 -3.654,5.153c0.303,-4.305 0.736,-7.294 1.233,-8.988l0,0zm27.99,15.555c-1.473,1.723 -2.714,2.625 -3.728,2.696c-0.827,0.061 -1.654,-0.203 -2.481,-0.803c1.241,-3.917 1.805,-7.184 1.606,-9.814c-0.027,-0.526 -0.133,-0.966 -0.308,-1.306c-0.171,-0.339 -0.547,-0.613 -1.195,-0.829c-0.63,-0.205 -1.607,-0.269 -2.939,-0.156c-3.484,0.298 -6.413,1.761 -8.649,4.315c-2.228,2.558 -3.103,5.428 -2.727,8.597c0.251,2.007 0.979,3.541 2.19,4.62c1.211,1.083 2.671,1.529 4.362,1.346c2.749,-0.284 5.027,-2.013 6.907,-5.216c1.128,0.698 2.234,1.007 3.309,0.928c0.404,-0.026 0.978,-0.192 1.654,-0.495c0.699,-0.311 1.429,-0.805 2.139,-1.48c-0.033,-0.809 -0.108,-1.602 -0.14,-2.403l0,0zm-10.947,-2.733c0.176,1.913 1.053,3.609 2.632,5.149c-1.101,1.927 -2.158,2.949 -3.216,3.048c-0.845,0.085 -1.528,-0.231 -2.107,-0.974c-0.542,-0.722 -0.918,-1.801 -1.068,-3.203c-0.251,-2.551 0.075,-4.825 0.999,-6.841c0.956,-2.014 2.448,-3.12 4.46,-3.292c0.424,-0.038 0.782,-0.017 1.008,0.042c-2.031,1.806 -2.923,3.843 -2.708,6.071l0,0l0,0zm27.768,2.203c-1.711,1.533 -2.803,2.487 -3.279,2.834c-0.501,0.338 -1.007,0.522 -1.549,0.527c-0.471,0.011 -0.877,-0.151 -1.177,-0.49s-0.463,-0.808 -0.482,-1.391c0,-0.638 0.091,-1.354 0.331,-2.181c0.239,-0.826 0.762,-2.377 1.605,-4.661c0.669,-1.805 1.357,-3.609 2.049,-5.412c-0.712,0.039 -1.429,0.082 -2.12,0.126c-1.865,3.331 -4.039,5.172 -6.556,5.52c0.63,-1.642 0.931,-2.904 0.879,-3.768c-0.023,-1.109 -0.664,-1.644 -1.88,-1.582c-1.429,0.055 -2.505,0.717 -3.257,1.984c-0.752,1.252 -1.077,2.417 -1.023,3.494c0.052,1.038 0.765,1.78 2.084,2.244c-0.878,1.379 -1.882,2.664 -2.963,3.895c0.022,0.619 0.079,1.245 0.098,1.881c0.182,-0.017 0.366,-0.032 0.526,-0.036c1.955,-2.071 3.392,-3.98 4.304,-5.714c1.336,-0.271 2.546,-0.69 3.667,-1.262c-2.181,3.394 -3.175,6.081 -3.083,8.054c0.032,1.065 0.376,1.931 1.049,2.627c0.633,0.694 1.416,1.027 2.31,0.995c1.987,-0.075 4.763,-1.846 8.496,-5.271c-0.011,-0.809 -0.02,-1.609 -0.029,-2.413zm33.163,1.407c-1.9,1.552 -3.18,2.556 -3.921,2.969c-0.713,0.415 -1.285,0.611 -1.664,0.583c-0.602,-0.052 -0.873,-0.461 -0.824,-1.233c0.072,-0.748 0.609,-2.267 1.686,-4.539c1.079,-2.267 1.693,-4.14 1.805,-5.64c0.083,-0.939 -0.111,-1.738 -0.617,-2.403c-0.471,-0.645 -1.147,-1.017 -2,-1.08c-0.953,-0.07 -2.034,0.213 -3.209,0.851c-1.201,0.646 -3.156,2.069 -5.86,4.293c0.223,-1.187 0.347,-2.001 0.372,-2.45c0.042,-0.97 -0.159,-1.761 -0.648,-2.371c-0.479,-0.621 -1.105,-0.941 -1.908,-0.978c-2.215,-0.096 -5.51,1.973 -9.67,6.281c0.57,-2.105 1.354,-4.286 2.375,-6.506c-1.861,0.272 -3.712,0.566 -5.564,0.874c-1.354,2.524 -2.303,4.735 -2.857,6.637c-0.592,1.89 -0.837,4.112 -0.827,6.666c0,1.086 0.075,2.418 0.226,4.022c1.641,-0.376 3.288,-0.751 4.944,-1.1c0.019,-1.169 0.094,-2.228 0.184,-3.174c0.107,-0.947 0.286,-2.005 0.512,-3.208c0.204,-0.998 0.667,-1.872 1.389,-2.607c0.539,-0.551 1.058,-1.043 1.554,-1.494c0.492,-0.426 0.938,-0.798 1.344,-1.126c0.383,-0.301 0.752,-0.555 1.103,-0.762c0.29,-0.186 0.552,-0.327 0.777,-0.418c0.219,-0.098 0.374,-0.134 0.455,-0.134c0.372,0.008 0.522,0.257 0.522,0.715c0,0.239 -0.15,0.954 -0.413,2.144c-0.264,1.201 -0.489,2.104 -0.667,2.739c-0.804,2.854 -1.625,5.712 -2.379,8.574c1.869,-0.287 3.734,-0.551 5.605,-0.789c0.498,-1.637 1.014,-3.271 1.54,-4.888c0.3,-0.991 0.601,-1.983 0.896,-2.97c0.138,-0.477 0.54,-1.053 1.26,-1.746c0.4,-0.407 0.834,-0.779 1.228,-1.118c0.389,-0.341 0.752,-0.639 1.127,-0.896c0.345,-0.262 0.677,-0.485 0.978,-0.657c0.301,-0.167 0.563,-0.282 0.806,-0.362c0.217,-0.088 0.398,-0.125 0.549,-0.109c0.524,0.029 0.752,0.265 0.725,0.69c-0.048,0.489 -0.547,1.867 -1.492,4.123c-0.962,2.265 -1.488,4.157 -1.563,5.663c-0.075,1.068 0.164,1.94 0.69,2.609c0.527,0.677 1.267,1.036 2.242,1.101c1.229,0.084 2.532,-0.238 3.909,-0.987c1.354,-0.74 3.049,-1.876 5.055,-3.384c0.072,-0.794 0.148,-1.601 0.225,-2.405zm23.822,3.176c-0.695,0.432 -1.433,0.871 -2.123,1.302c-1.726,1.05 -2.981,1.537 -3.748,1.415c-0.935,-0.143 -1.311,-0.863 -1.128,-2.17c0.107,-0.677 0.532,-1.806 1.33,-3.417c0.775,-1.589 2.201,-4.364 4.309,-8.267c-2.155,0.028 -4.286,0.085 -6.432,0.155c-1.413,2.805 -2.816,5.625 -4.171,8.444c-0.405,0.829 -1.275,1.767 -2.557,2.785c-1.287,1.037 -2.33,1.502 -3.085,1.424c-1.074,-0.131 -1.54,-0.861 -1.395,-2.187c0.268,-1.885 1.957,-6.038 5.312,-12.372c-2.107,0.119 -4.213,0.249 -6.31,0.408c-2.688,5.028 -4.087,9.002 -4.372,11.893c-0.15,1.492 0.077,2.711 0.677,3.651c0.6,0.933 1.429,1.457 2.555,1.579c1.204,0.119 2.482,-0.137 3.837,-0.776c1.36,-0.641 2.961,-1.69 4.812,-3.134c-0.21,1.5 -0.049,2.718 0.452,3.683c0.523,0.945 1.346,1.507 2.481,1.671c1.048,0.15 2.256,-0.088 3.684,-0.699c1.429,-0.625 3.234,-1.632 5.488,-3.007c0.131,-0.793 0.258,-1.586 0.384,-2.381l0,0zm14.576,2.839c-2.201,1.278 -3.777,2.106 -4.782,2.452c-1,0.353 -1.878,0.453 -2.656,0.297c-0.756,-0.151 -1.313,-0.613 -1.652,-1.399c-0.313,-0.79 -0.378,-1.789 -0.152,-2.981c0.09,-0.541 0.344,-1.511 0.742,-2.918c3.521,-2.406 6.302,-4.737 8.277,-7.056c1.961,-2.305 3.278,-4.836 3.885,-7.619c0.206,-0.984 0.247,-1.794 0.076,-2.432c-0.171,-0.643 -0.484,-1.017 -0.939,-1.116c-0.085,-0.012 -0.233,-0.015 -0.434,-0.012c-2.127,0.226 -4.236,0.472 -6.342,0.733c-2.701,3.001 -5.085,6.41 -7.183,10.207c-2.096,3.797 -3.349,7.149 -3.86,10.04c-0.314,1.925 -0.09,3.543 0.661,4.85c0.75,1.313 1.881,2.094 3.405,2.382c1.335,0.25 2.836,0.12 4.466,-0.39c1.631,-0.516 3.625,-1.416 5.967,-2.688c0.155,-0.778 0.337,-1.563 0.521,-2.35l0,0zm-2.111,-17.39c1.587,-2.306 2.678,-3.389 3.247,-3.266c0.272,0.053 0.451,0.25 0.557,0.596c0.115,0.347 0.115,0.771 -0.004,1.271c-0.357,1.72 -1.399,3.65 -3.107,5.8c-1.671,2.151 -3.666,4.002 -5.931,5.58c1.881,-4.36 3.641,-7.673 5.238,-9.981zm25.423,23.407c-1.575,0.765 -2.777,1.346 -3.608,1.702c-0.838,0.361 -1.549,0.471 -2.102,0.308c-0.891,-0.25 -1.154,-0.947 -0.828,-2.124c0.302,-1.107 1.356,-3.021 3.218,-5.715c1.212,-1.796 2.425,-3.573 3.654,-5.362c-0.408,-0.126 -0.848,-0.241 -1.254,-0.354c-1.769,0.333 -3.51,0.677 -5.241,1.044c-0.32,-1.757 -1.43,-2.885 -3.311,-3.367c-1.5,-0.383 -3.365,-0.233 -5.563,0.443c-2.21,0.677 -4.136,1.805 -5.787,3.384c-1.642,1.581 -2.654,3.412 -3.097,5.453c-0.364,1.643 -0.215,3.12 0.408,4.444c0.653,1.314 1.572,2.115 2.837,2.414c1.28,0.3 2.634,0.141 4.064,-0.49c1.438,-0.629 3.134,-1.716 5.079,-3.274c-1.101,3.742 -0.532,5.889 1.697,6.494c0.894,0.249 1.935,0.205 3.072,-0.148c1.16,-0.326 3.158,-1.205 6.067,-2.544c0.235,-0.773 0.466,-1.543 0.695,-2.308l0,0zm-18.111,-1.937c-0.262,-0.541 -0.309,-1.185 -0.154,-1.91c0.459,-1.943 1.628,-3.911 3.521,-5.892c1.887,-1.987 3.597,-2.782 5.088,-2.395c0.635,0.167 1.085,0.514 1.324,1.034c0.283,0.52 0.293,1.159 0.103,1.915c-0.502,1.935 -1.728,3.883 -3.607,5.852c-1.881,1.978 -3.51,2.784 -4.963,2.438c-0.588,-0.145 -1.019,-0.497 -1.312,-1.042zm48.087,12.506c-2.078,0.916 -3.579,1.188 -4.517,0.824c-0.785,-0.313 -1.396,-0.906 -1.888,-1.788c2.818,-3.009 4.716,-5.712 5.688,-8.163c0.206,-0.49 0.297,-0.919 0.297,-1.298c-0.001,-0.378 -0.233,-0.808 -0.728,-1.27c-0.474,-0.462 -1.326,-0.944 -2.575,-1.414c-3.269,-1.242 -6.507,-1.186 -9.625,0.146c-3.094,1.346 -5.125,3.557 -6.164,6.582c-0.624,1.918 -0.636,3.617 -0.014,5.11c0.605,1.494 1.708,2.523 3.314,3.105c2.564,0.922 5.354,0.325 8.458,-1.715c0.714,1.11 1.549,1.863 2.554,2.262c0.396,0.15 0.954,0.225 1.719,0.253c0.767,0.038 1.628,-0.103 2.563,-0.403c0.307,-0.752 0.613,-1.495 0.918,-2.231l0,0zm-8.671,-7.178c-0.657,1.789 -0.613,3.694 0.133,5.753c-1.809,1.274 -3.207,1.744 -4.205,1.388c-0.777,-0.29 -1.282,-0.89 -1.448,-1.792c-0.204,-0.903 -0.058,-2.031 0.428,-3.365c0.861,-2.405 2.138,-4.313 3.857,-5.735c1.702,-1.407 3.529,-1.747 5.423,-1.04c0.388,0.156 0.687,0.309 0.888,0.475c-2.613,0.75 -4.277,2.207 -5.076,4.316l0,0zm28.905,16.327c-3.418,1.305 -5.569,1.768 -6.569,1.29c-0.657,-0.312 -0.813,-0.839 -0.462,-1.605c0.284,-0.587 1.267,-1.64 2.994,-3.189c2.499,-2.229 4.07,-3.94 4.659,-5.144c0.345,-0.739 0.391,-1.444 0.152,-2.176c-0.251,-0.692 -0.745,-1.221 -1.467,-1.58c-1.069,-0.487 -2.498,-0.605 -4.257,-0.331c-1.789,0.26 -4.353,1.059 -7.664,2.401c0.987,-1.391 2.592,-3.139 4.846,-5.284c-1.863,-0.471 -3.727,-0.917 -5.596,-1.344c-2.173,1.828 -3.895,3.571 -5.181,5.212c-1.282,1.638 -2.339,3.499 -3.195,5.583c-0.344,0.853 -0.798,2.18 -1.374,3.984c1.643,0.301 3.293,0.59 4.945,0.902c0.509,-1.179 0.906,-2.1 1.256,-2.758c0.462,-0.878 1.01,-1.828 1.688,-2.831c0.417,-0.585 0.984,-1.074 1.758,-1.421c0.563,-0.263 1.149,-0.509 1.706,-0.742c0.652,-0.292 1.229,-0.519 1.771,-0.71c0.614,-0.234 1.152,-0.411 1.653,-0.561c0.535,-0.147 0.986,-0.225 1.363,-0.285c0.39,-0.016 0.69,-0.009 0.901,0.088c0.342,0.163 0.427,0.44 0.234,0.869c-0.18,0.388 -0.963,1.209 -2.293,2.416c-2.512,2.282 -4.029,4.131 -4.633,5.486c-0.451,1.026 -0.535,1.953 -0.26,2.794c0.273,0.863 0.871,1.491 1.771,1.895c2.223,1.024 5.564,0.724 10.185,-0.805c0.352,-0.726 0.716,-1.438 1.069,-2.154l0,0zm15.07,7.872c-2.415,0.576 -4.136,0.896 -5.157,0.902c-1.018,0.008 -1.975,-0.222 -2.827,-0.688c-2.24,-1.17 -2.996,-3.107 -2.288,-5.816c6.717,1.423 10.786,1.047 12.178,-1.481c0.524,-0.94 0.572,-1.925 0.125,-2.947c-0.449,-1 -1.31,-1.853 -2.599,-2.54c-2.471,-1.317 -5.302,-1.43 -8.404,-0.319c-3.128,1.113 -5.309,3.055 -6.6,5.695c-0.888,1.801 -1.023,3.505 -0.45,5.14s1.737,2.907 3.534,3.842c1.593,0.834 3.245,1.243 4.969,1.231c1.722,-0.024 3.828,-0.341 6.347,-0.913c0.401,-0.717 0.788,-1.406 1.172,-2.106l0,0zm-6.089,-11.165c1.46,-0.813 2.636,-0.991 3.536,-0.506c0.964,0.492 1.12,1.343 0.5,2.52c-1.273,2.385 -3.863,3.084 -7.73,2.213c1.01,-1.986 2.252,-3.411 3.694,-4.227l0,0z"/>
  </g>
 </g>
</svg>