<svg width="100" height="100" xmlns="http://www.w3.org/2000/svg">
 <g>
  <g id="front_wheel">
   <path id="front_wheel_path" d="m48.652982,95.592002c-21.557,0 -39.761,-14.21 -45.645,-33.704c5.161,15.608 20.208,26.907 37.975,26.907c7.729,0 14.939,-2.145 21.051,-5.845c-4.852,2.565 -10.393,4.023 -16.279,4.023c-15.637,0 -28.843,-10.264 -33.11,-24.345c3.744,11.274 14.659,19.435 27.547,19.435c15.98,0 28.936,-12.544 28.936,-28.019s-12.955,-28.02 -28.936,-28.02c-15.981,0 -28.937,12.545 -28.937,28.02c0,0.41 0.014,0.816 0.032,1.223c-0.059,-0.812 -0.099,-1.628 -0.099,-2.455c0,-18.865 15.476,-34.16 34.566,-34.16c8.219,0 14.611,2.648 19.57,6.691c1.717,1.163 3.694,1.885 4.63,1.261c1.611,-1.404 0.067,-3.189 -0.868,-4.134c-7.211,-6.961 -17.141,-11.262 -28.104,-11.262c-22.03,0 -39.89,17.368 -39.89,38.793c0,0.567 0.019,1.131 0.044,1.692c-0.081,-1.124 -0.136,-2.254 -0.136,-3.397c0,-26.121 21.334,-47.296 47.651,-47.296s47.652,21.175 47.652,47.296c0.002,26.121 -21.333,47.296 -47.65,47.296z" clip-rule="evenodd" fill-rule="evenodd"/>
  </g>
 </g>
</svg>