<svg width="270" height="100" xmlns="http://www.w3.org/2000/svg">
 <g>
  <g id="monocoque">
   <path id="monocoque_path" d="m14.493,90.736199c73.553,-34.669 180.177,-24.877 245.792,-18.261c-39.687,-12.703 -78.314,-18.79 -106.095,-18.261c-15.081,-1.853 -28.574,-17.203 -35.982,-20.378c-7.408,1.059 -13.229,0.794 -14.287,-2.117c3.439,-2.382 8.466,-1.853 11.641,-5.558c0,-5.028 2.646,-10.586 6.614,-21.172c-2.646,-10.322 -41.803,1.588 -63.763,10.851c-21.96,9.263 -32.014,28.318 -57.413,34.935c20.104,1.132 43.499,-24.16 58.58,-28.924c7.573,-2.393 28.557,-11.887 43.812,-8.393c6.35,1.853 -15.875,21.702 -10.848,25.142c5.027,7.146 16.668,-4.764 36.776,17.467c-9.525,0.529 -83.342,10.321 -114.827,34.669z" clip-rule="evenodd" fill-rule="evenodd"/>
  </g>
 </g>
</svg>