<svg width="95" height="50" xmlns="http://www.w3.org/2000/svg">
 <g>
  <g id="qp_font">
   <path id="svg_24" d="m90.626858,25.26217c-2.26,4.26 -6.372,7.019 -11.874,8.887c-5.511,1.882 -10.173,2.175 -14.602,0.729c-1.234,-0.404 -2.184,-0.814 -2.844,-1.26c-0.656,-0.443 -1.454,-1.251 -2.432,-2.41c-3.61,6.15 -5.917,11.274 -7.323,15.197c-2.899,-0.169 -5.78,-0.206 -8.638,-0.111c2.968,-9.85 6.876,-19.671 12.147,-29.24c-4.513,2.905 -7.252,4.855 -8.655,5.549c-0.003,0.013 -0.005,0.026 -0.008,0.039c-11.557,6.958 -17.142,14.769 -19.216,21.244c-3.677,0.539 -6.532,1.332 -8.576,2.163c1.379,-7.999 3.33,-15.98 5.849,-23.881c-4.691,5.135 -8.724,8.067 -12.999,8.781c-2.355,0.4 -4.438,0.058 -6.348,-1.063c-1.904,-1.119 -3.18,-2.771 -3.741,-5.031c-0.756,-3.056 -0.375,-6.462 1.437,-10.17c1.808,-3.705 4.673,-6.941 8.603,-9.521c3.928,-2.575 8.116,-3.963 12.275,-4.148c4.301,-0.184 7.163,1.207 8.475,3.896c3.368,-1.203 6.331,-2.365 8.864,-3.579c1.095,0.089 2.19,0.19 3.281,0.305c-5.327,9.738 -9.734,19.771 -13.2,29.97c4.103,-4.784 9.163,-8.964 15.133,-12.3c5.781,-3.655 11.323,-7.92 16.577,-13.035c3.646,0.443 7.298,1.034 10.936,1.777l0,0c-1.167,1.577 -2.309,3.163 -3.435,4.765c2.727,-1.122 5.257,-1.724 7.516,-1.848c2.258,-0.123 4.594,0.315 6.946,1.325c3.048,1.313 5.144,3.259 6.221,5.685c1.084,2.431 0.914,4.863 -0.369,7.285zm-63.096,-20.744c-0.841,-0.702 -1.881,-1.038 -3.101,-0.991c-3.826,0.15 -7.219,2.563 -9.738,7.105c-2.515,4.553 -3.323,8.379 -2.87,11.385c0.125,0.818 0.601,1.458 1.412,1.935l0,0c0.811,0.477 1.714,0.651 2.725,0.531c3.084,-0.369 5.788,-2.597 8.536,-6.734c2.75,-4.134 4.328,-7.585 4.299,-10.505c-0.007,-1.109 -0.424,-2.022 -1.263,-2.726zm52.154,13.176c-0.517,-1.328 -1.529,-2.286 -3.005,-2.839c-1.147,-0.43 -2.496,-0.51 -4.013,-0.221c-1.518,0.29 -2.743,0.83 -3.692,1.595c-0.944,0.765 -2.197,2.234 -3.701,4.431l0,0c-1.657,2.46 -3.264,4.953 -4.813,7.464c0.882,2.163 2.068,3.476 3.667,3.981c2.561,0.816 5.314,0.036 8.547,-2.298c3.223,-2.33 5.565,-4.866 6.794,-7.799c0.65,-1.548 0.736,-2.985 0.216,-4.314z" clip-rule="evenodd" fill-rule="evenodd"/>
  </g>
 </g>
</svg>