<svg width="100" height="100" xmlns="http://www.w3.org/2000/svg">
 <g>
  <g id="rear_wheel">
   <path id="rear_wheel_outer" d="m49.757996,1.411c26.929,0 48.758,21.667 48.758,48.394s-21.83,48.394 -48.758,48.394c-26.928,0 -48.758,-21.667 -48.758,-48.394s21.83,-48.394 48.758,-48.394zm-4.498,5.335c24.393,0 44.167,19.702 44.167,44.007c0,24.304 -19.774,44.006 -44.167,44.006c-24.393,0 -44.167,-19.702 -44.167,-44.006c0,-24.305 19.775,-44.007 44.167,-44.007z" clip-rule="evenodd" fill-rule="evenodd"/>
   <path id="rear_wheel_inner" d="m46.794996,15.434c20.292,0 36.741,16.451 36.741,36.743s-16.45,36.742 -36.741,36.742s-36.741,-16.45 -36.741,-36.742s16.449,-36.743 36.741,-36.743zm-4.119,6.56c17.978,0 32.552,14.518 32.552,32.426c0,17.909 -14.574,32.427 -32.552,32.427s-32.552,-14.518 -32.552,-32.427c0,-17.909 14.574,-32.426 32.552,-32.426z" clip-rule="evenodd" fill-rule="evenodd"/>
  </g>
 </g>
</svg>